<svg width="22" height="22" viewBox="0 0 22 22" fill="none" xmlns="http://www.w3.org/2000/svg">
<path d="M10.9995 18.4607C12.0086 18.4607 12.9301 18.3508 13.7706 18.1609L11.8966 16.2868C11.6054 16.3092 11.3099 16.3274 10.9995 16.3274C5.29191 16.3274 3.08076 12.225 2.54531 10.9941C2.94737 10.0969 3.4904 9.26971 4.1538 8.54402L2.66264 7.05284C1.02214 8.83095 0.40029 10.6219 0.388556 10.6571C0.31498 10.8761 0.31498 11.1132 0.388556 11.3322C0.410956 11.4026 2.85783 18.4607 10.9995 18.4607ZM10.9995 3.52756C9.04009 3.52756 7.43052 3.94995 6.08869 4.57394L2.15385 0.640137L0.645617 2.14838L19.8452 21.3481L21.3534 19.8398L17.8132 16.2996C20.6014 14.2186 21.5966 11.377 21.6115 11.3322C21.6851 11.1132 21.6851 10.8761 21.6115 10.6571C21.5881 10.5856 19.1412 3.52756 10.9995 3.52756ZM16.3029 14.7893L13.8709 12.3573C14.0736 11.9413 14.1994 11.4837 14.1994 10.9941C14.1994 9.24374 12.7499 7.79416 10.9995 7.79416C10.5099 7.79416 10.0523 7.92003 9.63741 8.12376L7.70892 6.19525C8.76758 5.83197 9.88029 5.65126 10.9995 5.66086C16.7071 5.66086 18.9183 9.7632 19.4537 10.9941C19.1316 11.7322 18.21 13.4922 16.3029 14.7893Z" fill="#767676"/>
</svg>
